<?xml version="1.0" standalone="no"?>
<!DOCTYPE svg PUBLIC "-//W3C//DTD SVG 20010904//EN"
 "http://www.w3.org/TR/2001/REC-SVG-20010904/DTD/svg10.dtd">
<svg version="1.0" xmlns="http://www.w3.org/2000/svg"
 width="300.000000pt" height="225.000000pt" viewBox="0 0 300.000000 225.000000"
 preserveAspectRatio="xMidYMid meet">

<g transform="translate(0.000000,225.000000) scale(0.100000,-0.100000)"
fill="#000000" stroke="none">
<path d="M1356 1665 c-185 -51 -336 -201 -392 -390 -24 -81 -23 -230 2 -307
l19 -57 84 49 85 49 0 108 c1 103 2 111 35 171 41 75 94 125 170 161 47 22 70
26 146 26 78 0 98 -4 145 -27 60 -30 120 -83 155 -138 47 -75 56 -64 -172
-195 -115 -65 -221 -127 -238 -137 l-29 -17 48 -22 c37 -16 63 -20 105 -17 50
4 80 18 296 143 132 76 241 139 242 140 1 0 -4 25 -12 55 -51 195 -210 355
-401 405 -71 18 -220 18 -288 0z m219 -25 c87 -13 217 -73 279 -130 56 -51
118 -149 141 -219 17 -51 17 -54 -1 -72 -11 -10 -113 -72 -229 -138 -178 -103
-216 -121 -252 -121 -24 0 -43 4 -43 9 0 8 92 67 125 80 6 2 26 14 45 26 19
12 67 39 105 60 81 44 125 81 125 107 0 66 -101 187 -194 233 -160 78 -325 49
-451 -79 -80 -82 -107 -148 -111 -271 l-3 -90 -38 -27 c-53 -38 -70 -36 -80
10 -10 46 -9 164 1 215 39 200 217 372 418 406 73 12 83 12 163 1z"/>
<path d="M1420 1314 c-66 -28 -110 -88 -124 -167 -9 -51 0 -61 32 -39 15 10
89 54 165 97 75 42 137 81 137 85 0 15 -81 40 -128 40 -26 -1 -63 -8 -82 -16z
m115 -33 c-6 -11 -140 -94 -167 -104 -24 -9 -23 21 1 50 31 37 83 63 129 63
24 0 41 -4 37 -9z"/>
<path d="M1985 996 c-128 -78 -330 -193 -365 -207 -21 -8 -70 -14 -120 -14
-76 0 -93 4 -151 32 -35 18 -75 43 -88 57 l-23 24 -86 -51 c-48 -27 -89 -52
-92 -55 -3 -2 24 -30 59 -62 70 -64 157 -113 241 -135 72 -19 210 -19 285 0
128 34 266 136 333 248 29 49 87 195 80 203 -2 1 -35 -17 -73 -40z m-10 -83
c-17 -70 -99 -165 -195 -226 -84 -52 -142 -70 -257 -75 -118 -5 -203 15 -288
69 -53 33 -105 78 -105 90 0 10 83 59 99 59 7 0 31 -13 54 -29 85 -58 205 -83
298 -61 54 12 136 52 259 126 140 83 145 85 135 47z"/>
</g>
</svg>
